<?xml version="1.0" encoding="utf-8"?>
<!-- Generator: Adobe Illustrator 15.0.0, SVG Export Plug-In . SVG Version: 6.00 Build 0)  -->
<!DOCTYPE svg PUBLIC "-//W3C//DTD SVG 1.1//EN" "http://www.w3.org/Graphics/SVG/1.1/DTD/svg11.dtd">
<svg version="1.1" id="Layer_1" xmlns="http://www.w3.org/2000/svg" xmlns:xlink="http://www.w3.org/1999/xlink" x="0px" y="0px"
	 width="242.105px" height="109.474px" viewBox="0 0 242.105 109.474" enable-background="new 0 0 242.105 109.474"
	 xml:space="preserve">
<path d="M47.821,19.242c-3.35-3.956-7.688-5.936-13.013-5.936c-5.404,0-9.76,1.998-13.07,5.993
	c-3.31,3.995-4.965,9.229-4.965,15.696c0,6.469,1.655,11.7,4.965,15.695c3.311,3.996,7.666,5.993,13.07,5.993
	c5.326,0,9.664-1.978,13.013-5.936c3.348-3.956,5.022-9.207,5.022-15.752C52.844,28.451,51.169,23.2,47.821,19.242z M43.769,47.151
	c-2.246,2.931-5.233,4.395-8.961,4.395c-3.806,0-6.812-1.484-9.018-4.452c-2.208-2.968-3.31-7-3.31-12.1
	c0-5.098,1.102-9.132,3.31-12.1c2.207-2.968,5.212-4.452,9.018-4.452c3.728,0,6.715,1.466,8.961,4.395
	c2.244,2.931,3.367,6.983,3.367,12.157C47.136,40.17,46.013,44.223,43.769,47.151z"/>
<polygon points="83.208,13.876 89.942,13.876 35.379,93.782 28.644,93.782 "/>
<path d="M96.849,56.968c-3.311-3.995-7.667-5.993-13.07-5.993c-5.328,0-9.665,1.998-13.013,5.993
	c-3.35,3.995-5.022,9.229-5.022,15.696c0,6.469,1.673,11.7,5.022,15.695c3.348,3.996,7.686,5.993,13.013,5.993
	c5.403,0,9.76-1.998,13.07-5.993c3.311-3.995,4.965-9.226,4.965-15.695C101.814,66.197,100.159,60.963,96.849,56.968z
	 M92.796,84.764c-2.208,2.968-5.213,4.452-9.018,4.452c-3.729,0-6.717-1.464-8.96-4.395c-2.246-2.929-3.368-6.981-3.368-12.157
	c0-5.174,1.122-9.227,3.368-12.157c2.244-2.929,5.231-4.395,8.96-4.395c3.805,0,6.81,1.484,9.018,4.452
	c2.206,2.968,3.31,7.002,3.31,12.1C96.106,77.763,95.002,81.796,92.796,84.764z"/>
<path d="M138.378,56.968c-3.31-3.995-7.667-5.993-13.07-5.993c-5.404,0-9.76,1.979-13.07,5.936
	c-3.311,3.958-4.966,9.209-4.966,15.753c0,6.546,1.655,11.796,4.966,15.752c3.31,3.958,7.666,5.936,13.07,5.936
	c5.402,0,9.76-1.998,13.07-5.993c3.311-3.995,4.966-9.226,4.966-15.695C143.344,66.197,141.688,60.963,138.378,56.968z
	 M134.269,84.764c-2.246,2.968-5.233,4.452-8.96,4.452c-3.807,0-6.812-1.464-9.018-4.395c-2.208-2.929-3.311-6.981-3.311-12.157
	c0-5.174,1.103-9.227,3.311-12.157c2.206-2.929,5.211-4.395,9.018-4.395c3.728,0,6.715,1.484,8.96,4.452
	c2.244,2.968,3.368,7.002,3.368,12.1C137.636,77.763,136.512,81.796,134.269,84.764z"/>
<path d="M179.908,57.092c-3.31-3.995-7.667-5.993-13.07-5.993c-5.404,0-9.76,1.979-13.07,5.936
	c-3.311,3.958-4.966,9.209-4.966,15.753c0,6.546,1.655,11.796,4.966,15.752c3.31,3.958,7.666,5.936,13.07,5.936
	c5.402,0,9.76-1.998,13.07-5.993c3.311-3.995,4.966-9.226,4.966-15.695C184.874,66.32,183.218,61.087,179.908,57.092z
	 M175.798,84.887c-2.246,2.968-5.233,4.452-8.96,4.452c-3.807,0-6.812-1.464-9.018-4.395c-2.208-2.929-3.311-6.981-3.311-12.157
	c0-5.174,1.103-9.227,3.311-12.157c2.206-2.929,5.211-4.395,9.018-4.395c3.728,0,6.715,1.484,8.96,4.452
	c2.244,2.968,3.368,7.002,3.368,12.1C179.166,77.887,178.042,81.919,175.798,84.887z"/>
<path d="M221.438,57.092c-3.31-3.995-7.667-5.993-13.07-5.993c-5.404,0-9.76,1.979-13.07,5.936
	c-3.311,3.958-4.966,9.209-4.966,15.753c0,6.546,1.655,11.796,4.966,15.752c3.31,3.958,7.666,5.936,13.07,5.936
	c5.402,0,9.76-1.998,13.07-5.993c3.311-3.995,4.966-9.226,4.966-15.695C226.403,66.32,224.748,61.087,221.438,57.092z
	 M217.328,84.887c-2.246,2.968-5.233,4.452-8.96,4.452c-3.807,0-6.812-1.464-9.018-4.395c-2.208-2.929-3.311-6.981-3.311-12.157
	c0-5.174,1.103-9.227,3.311-12.157c2.206-2.929,5.211-4.395,9.018-4.395c3.728,0,6.715,1.484,8.96,4.452
	c2.244,2.968,3.368,7.002,3.368,12.1C220.696,77.887,219.572,81.919,217.328,84.887z"/>
</svg>
