<?xml version="1.0" encoding="utf-8"?>
<!-- Generator: Adobe Illustrator 15.0.0, SVG Export Plug-In . SVG Version: 6.00 Build 0)  -->
<!DOCTYPE svg PUBLIC "-//W3C//DTD SVG 1.1//EN" "http://www.w3.org/Graphics/SVG/1.1/DTD/svg11.dtd">
<svg version="1.1" id="Layer_1" xmlns="http://www.w3.org/2000/svg" xmlns:xlink="http://www.w3.org/1999/xlink" x="0px" y="0px"
	 width="64px" height="64px" viewBox="0 0 64 64" enable-background="new 0 0 64 64" xml:space="preserve">
<path d="M32,20c3.299,0,6-2.701,6-6s-2.701-6-6-6s-6,2.701-6,6S28.701,20,32,20z M32,26c-3.299,0-6,2.701-6,6s2.701,6,6,6
	s6-2.701,6-6S35.299,26,32,26z M32,44c-3.299,0-6,2.701-6,6s2.701,6,6,6s6-2.701,6-6S35.299,44,32,44z"/>
</svg>
